<?xml version="1.0" encoding="utf-8"?>
<!-- Generator: Adobe Illustrator 27.1.1, SVG Export Plug-In . SVG Version: 6.00 Build 0)  -->
<svg version="1.1" id="Capa_1" xmlns="http://www.w3.org/2000/svg" xmlns:xlink="http://www.w3.org/1999/xlink" x="0px" y="0px"
	 viewBox="0 0 350 269.2" style="enable-background:new 0 0 350 269.2;" xml:space="preserve">
<style type="text/css">
	.st0{fill:#FFFFFF;}
</style>
<g>
	<path class="st0" d="M57.5,154.7v19.8c0,1.3,1.1,2.4,2.4,2.4h23.5v17H59.9c-1.3,0-2.4,1.1-2.4,2.4v17H32.9c-1.3,0-2.4,1.1-2.4,2.4
		v18.4H7.8c-1.3,0-2.4,1.1-2.4,2.4v19.8c0,1.3,1.1,2.4,2.4,2.4h53.3h41.1V254H63.5v-15h38.7v-5.8H88.6v-14.7h13.6v-5.1h-16h-24
		v-14.7h40v-6.8H88.1v-15h14.1v-4.8H85.8H62.3v-15h40v-4.8H59.9C58.6,152.3,57.5,153.4,57.5,154.7z M58.7,254H10.2v-15h48.5
		C58.7,239,58.7,254,58.7,254z M83.8,218.4v14.7H35.3v-15h23.5c0.3,0.2,0.7,0.3,1,0.3H83.8z"/>
	<path class="st0" d="M191.3,113.5c-1,0.7-2.3,1.1-4,1.1c-2.2,0-3.8-0.6-5.1-1.8c-1.2-1.2-1.8-2.8-1.8-4.7h-12.6
		c0,3.4,0.8,6.4,2.5,9c1.7,2.6,4,4.6,7,6.1c3,1.5,6.4,2.2,10.1,2.2c3.6,0,6.6-0.6,9.4-1.8c2.7-1.2,4.8-3,6.4-5.3
		c1.5-2.3,2.3-5.1,2.3-8.2c0-2.7-0.6-5.1-1.8-7c-1.2-1.9-2.8-3.5-4.8-4.7c-2-1.2-4.4-2.4-7.3-3.5c-1.3-0.5-2.1-0.8-2.3-0.9
		c-2.2-0.9-3.8-1.6-4.8-2c-0.9-0.4-1.7-0.9-2.3-1.5c-0.5-0.5-0.8-1.2-0.8-2c0-1.1,0.4-2,1.4-2.7c0.9-0.7,2.1-1.1,3.5-1.1
		c1.6,0,2.8,0.5,3.7,1.4c0.9,0.9,1.4,2.2,1.4,3.8h12c0-3.2-0.7-6-2.1-8.5c-1.4-2.4-3.4-4.3-6-5.7c-2.6-1.4-5.5-2-9-2
		c-3.2,0-6.2,0.5-8.8,1.7c-2.6,1.1-4.7,2.7-6.3,4.9c-1.5,2.1-2.3,4.6-2.3,7.5c0,2.7,0.7,5,2,6.9c1.4,1.9,3.1,3.4,5.1,4.7
		c2.1,1.3,4.8,2.6,8.1,4l1.2,0.5c2.6,1.2,4.6,2.2,5.8,3.1c1.2,0.8,1.8,2,1.8,3.4C192.8,111.8,192.3,112.8,191.3,113.5z"/>
	<path class="st0" d="M253.4,124.7V83.9h-11.6v4.4c-1.5-1.6-3.3-2.9-5.3-3.8c-2.1-0.9-4.3-1.3-6.8-1.3c-3.6,0-6.8,0.9-9.7,2.7
		c-2.9,1.8-5.1,4.3-6.8,7.5c-1.7,3.2-2.5,6.8-2.5,10.9c0,4.1,0.8,7.7,2.5,11c1.6,3.2,4,5.8,6.8,7.5c2.9,1.8,6.1,2.6,9.7,2.7
		c2.5,0,4.8-0.4,6.8-1.3c2-0.9,3.8-2.1,5.3-3.8v4.4H253.4z M238.4,111.3c-1.7,1.8-3.9,2.7-6.6,2.7c-2.7,0-4.9-0.9-6.6-2.7
		c-1.6-1.8-2.5-4.2-2.5-7.1c0-2.9,0.8-5.2,2.5-7c1.7-1.8,3.9-2.6,6.6-2.6c2.7,0,4.9,0.9,6.6,2.7c1.7,1.8,2.6,4.1,2.6,7
		C240.9,107.2,240.1,109.5,238.4,111.3z"/>
	<path class="st0" d="M290.4,101.7v23h12.2v-24c0-3.4-0.7-6.4-2.1-9.1c-1.4-2.6-3.4-4.7-5.8-6.2c-2.5-1.5-5.2-2.3-8.3-2.3
		c-2.8,0-5.2,0.5-7.1,1.7s-3.2,2.5-4,4.1v-5.1h-12h0v40.9h12.2v-23c0-2.3,0.7-4.1,2-5.5c1.4-1.4,3.1-2.1,5.3-2.1
		c2.3,0,4,0.7,5.4,2.1C289.8,97.5,290.4,99.4,290.4,101.7z"/>
	<path class="st0" d="M169.6,45.6c1.4,0.8,3,1.2,4.7,1.2c1.5,0,2.9-0.3,4.2-0.9c1.3-0.6,2.4-1.5,3.2-2.6s1.4-2.4,1.6-3.8h-1.7
		c-0.2,1.2-0.7,2.2-1.3,3.1c-0.7,0.9-1.5,1.6-2.6,2.1c-1,0.5-2.1,0.7-3.4,0.7c-1.4,0-2.7-0.3-3.9-1c-1.2-0.7-2-1.6-2.7-2.7
		c-0.7-1.2-1-2.5-1-4c0-1.5,0.3-2.9,1-4c0.7-1.2,1.5-2.1,2.7-2.7c1.2-0.7,2.4-1,3.9-1c1.2,0,2.4,0.2,3.4,0.7c1,0.5,1.9,1.2,2.5,2.1
		c0.7,0.9,1.2,1.9,1.4,3.1h1.7c-0.2-1.4-0.8-2.7-1.6-3.8c-0.8-1.1-1.9-2-3.1-2.6c-1.3-0.6-2.7-0.9-4.2-0.9c-1.8,0-3.4,0.4-4.8,1.2
		c-1.4,0.8-2.5,1.9-3.3,3.2c-0.8,1.4-1.2,3-1.2,4.8c0,1.8,0.4,3.4,1.2,4.8C167.2,43.8,168.2,44.9,169.6,45.6z"/>
	<path class="st0" d="M188.8,45.9c1.2,0.7,2.5,0.9,4,0.9s2.8-0.3,4-0.9c1.2-0.6,2-1.5,2.7-2.6c0.7-1.2,1-2.4,1-3.9
		c0-1.5-0.3-2.7-1-3.9c-0.7-1.1-1.5-2-2.7-2.6c-1.2-0.6-2.5-0.9-4-0.9s-2.8,0.3-4,0.9c-1.2,0.6-2,1.5-2.7,2.6c-0.7,1.2-1,2.4-1,3.9
		c0,1.5,0.3,2.7,1,3.9C186.8,44.3,187.7,45.2,188.8,45.9z M187.6,36.2c0.5-0.9,1.2-1.6,2.1-2.1c0.9-0.5,1.9-0.8,3.1-0.8
		c1.2,0,2.2,0.3,3.1,0.8c0.9,0.5,1.6,1.2,2.1,2.1c0.5,0.9,0.8,2,0.8,3.1c0,1.2-0.3,2.2-0.8,3.1c-0.5,0.9-1.3,1.6-2.1,2.1
		c-0.9,0.5-1.9,0.8-3.1,0.8c-1.2,0-2.2-0.3-3.1-0.8c-0.9-0.5-1.6-1.2-2.1-2.1c-0.5-0.9-0.8-2-0.8-3.1
		C186.8,38.2,187.1,37.1,187.6,36.2z"/>
	<path class="st0" d="M204.7,38.2c0-0.9,0.2-1.8,0.6-2.6c0.4-0.7,1-1.3,1.8-1.8s1.6-0.7,2.6-0.7s1.8,0.2,2.6,0.7
		c0.8,0.4,1.3,1,1.8,1.8c0.4,0.8,0.7,1.6,0.7,2.6v8.4h1.6v-8.3c0-1.3-0.3-2.4-0.8-3.4c-0.5-1-1.3-1.8-2.3-2.3
		c-1-0.5-2.1-0.8-3.3-0.8s-2.3,0.3-3.2,0.8c-0.9,0.6-1.5,1.3-2,2.3V32h-1.6h0v14.6h1.6V38.2z"/>
	<path class="st0" d="M226.2,44.6c-0.7,0.5-1.4,0.8-2.4,0.8c-1.2,0-2-0.4-2.7-1.2c-0.7-0.8-1-1.8-1-3h-1.6c0,1,0.2,2,0.7,2.9
		c0.4,0.9,1,1.5,1.9,2c0.8,0.4,1.8,0.7,2.8,0.8c0.9,0,1.8-0.2,2.5-0.5c0.8-0.3,1.4-0.8,1.8-1.5c0.4-0.7,0.7-1.4,0.7-2.1
		c0-0.8-0.2-1.4-0.5-1.9c-0.3-0.5-0.8-0.9-1.4-1.2s-1.3-0.5-2.2-0.9l-0.4-0.2c-0.9-0.3-1.5-0.6-2-0.8c-0.4-0.2-0.8-0.4-1.1-0.8
		c-0.3-0.3-0.4-0.8-0.4-1.4c0-0.8,0.2-1.4,0.8-1.8c0.5-0.4,1.2-0.7,2-0.7c0.9,0,1.6,0.3,2.3,0.9c0.6,0.5,0.9,1.3,0.9,2.3h1.6
		c0-0.9-0.2-1.6-0.6-2.4c-0.4-0.7-1-1.3-1.7-1.6c-0.8-0.4-1.5-0.6-2.5-0.6c-1.3,0-2.4,0.4-3.2,1.1c-0.8,0.7-1.2,1.7-1.2,2.9
		c0,0.9,0.2,1.6,0.6,2.1c0.4,0.5,0.9,0.9,1.5,1.2c0.5,0.3,1.4,0.6,2.4,1l0.7,0.2c0.7,0.2,1.2,0.4,1.6,0.6c0.4,0.2,0.7,0.4,0.9,0.7
		c0.3,0.3,0.4,0.7,0.4,1.2C227.2,43.5,226.9,44.1,226.2,44.6z"/>
	<polygon class="st0" points="233.3,46.6 234.9,46.6 234.9,33.4 238.1,33.4 238.1,32 234.9,32 234.9,28.7 233.3,28.7 233.3,32 
		230.1,32 230.1,33.4 233.3,33.4 	"/>
	<path class="st0" d="M241.3,38.5c0-1,0.2-1.9,0.7-2.6c0.4-0.8,1-1.4,1.8-1.8c0.8-0.4,1.6-0.7,2.6-0.7v-1.6c-1.2,0-2.1,0.3-3,0.9
		c-0.9,0.5-1.5,1.3-2,2.1V32h-1.6v14.6h1.6V38.5z"/>
	<path class="st0" d="M251.2,46c1,0.5,2.1,0.8,3.3,0.8c1.2,0,2.3-0.3,3.2-0.8c0.9-0.6,1.5-1.3,2-2.3v2.8h1.6h0V32h-1.6v8.3
		c0,0.9-0.2,1.8-0.6,2.6c-0.4,0.7-1,1.3-1.8,1.8c-0.8,0.4-1.6,0.7-2.6,0.7c-1,0-1.8-0.2-2.6-0.7c-0.8-0.4-1.3-1-1.8-1.8
		c-0.4-0.8-0.7-1.6-0.7-2.6V32h-1.6v8.3c0,1.3,0.3,2.4,0.8,3.4C249.5,44.7,250.2,45.5,251.2,46z"/>
	<path class="st0" d="M267.6,45.9c1.2,0.7,2.5,0.9,4.1,0.9c1.9,0,3.5-0.5,4.8-1.6c1.3-1.1,2.1-2.5,2.5-4.3h-1.7
		c-0.3,1.4-1,2.4-2,3.2c-1,0.8-2.2,1.2-3.7,1.2c-1.2,0-2.2-0.3-3.1-0.8c-0.9-0.5-1.6-1.2-2.1-2.1c-0.5-0.9-0.8-2-0.8-3.1
		c0-1.2,0.3-2.2,0.8-3.1c0.5-0.9,1.2-1.6,2.1-2.1c0.9-0.5,1.9-0.8,3.1-0.8c1.5,0,2.7,0.4,3.8,1.3c1,0.9,1.6,2,1.9,3.5h1.6
		c-0.2-1.3-0.6-2.4-1.3-3.3c-0.7-0.9-1.5-1.6-2.6-2.2c-1-0.5-2.3-0.8-3.6-0.8c-1.5,0-2.8,0.3-4,0.9c-1.2,0.6-2,1.5-2.7,2.6
		c-0.7,1.2-1,2.4-1,3.9c0,1.5,0.3,2.7,1,3.9C265.6,44.3,266.4,45.2,267.6,45.9z"/>
	<polygon class="st0" points="283.5,46.6 285.1,46.6 285.1,33.4 288.2,33.4 288.2,32 285.1,32 285.1,28.7 283.5,28.7 283.5,32 
		280.3,32 280.3,33.4 283.5,33.4 	"/>
	<path class="st0" d="M293.2,45.9c1.2,0.7,2.5,0.9,4,0.9c1.5,0,2.8-0.3,4-0.9c1.2-0.6,2-1.5,2.7-2.6c0.7-1.2,1-2.4,1-3.9
		c0-1.5-0.3-2.7-1-3.9c-0.7-1.1-1.5-2-2.7-2.6c-1.2-0.6-2.5-0.9-4-0.9c-1.5,0-2.8,0.3-4,0.9c-1.2,0.6-2,1.5-2.7,2.6s-1,2.4-1,3.9
		c0,1.5,0.3,2.7,1,3.9C291.2,44.3,292.1,45.2,293.2,45.9z M292,36.2c0.5-0.9,1.2-1.6,2.1-2.1c0.9-0.5,1.9-0.8,3.1-0.8
		c1.2,0,2.2,0.3,3.1,0.8c0.9,0.5,1.6,1.2,2.1,2.1c0.5,0.9,0.8,2,0.8,3.1c0,1.2-0.3,2.2-0.8,3.1s-1.2,1.6-2.1,2.1
		c-0.9,0.5-1.9,0.8-3.1,0.8c-1.2,0-2.2-0.3-3.1-0.8c-0.9-0.5-1.6-1.2-2.1-2.1c-0.5-0.9-0.8-2-0.8-3.1
		C291.2,38.2,291.5,37.1,292,36.2z"/>
	<path class="st0" d="M309.1,38.5c0-1,0.2-1.9,0.7-2.6c0.4-0.8,1-1.4,1.8-1.8c0.8-0.4,1.6-0.7,2.6-0.7v-1.6c-1.2,0-2.1,0.3-3,0.9
		c-0.9,0.5-1.5,1.3-2,2.1V32h-1.6h0v14.6h1.6V38.5z"/>
	<path class="st0" d="M319,45.9c1.2,0.7,2.4,0.9,3.8,1.1c1.4,0,2.6-0.3,3.6-0.9c1-0.6,1.9-1.4,2.5-2.4v3h1.6V32.1h-1.6v3
		c-0.6-1-1.4-1.9-2.5-2.4c-1-0.6-2.3-0.9-3.6-0.9c-1.4,0-2.7,0.3-3.8,0.9c-1.1,0.6-2,1.5-2.6,2.6c-0.6,1.2-0.9,2.4-0.9,3.9
		c0,1.5,0.3,2.8,0.9,3.9S317.9,45.2,319,45.9z M317.9,36.2c0.5-0.9,1.2-1.6,2.1-2.1c0.9-0.5,1.9-0.8,3.1-0.8c1.2,0,2.2,0.3,3.1,0.8
		c0.9,0.5,1.6,1.2,2.1,2.1c0.5,0.9,0.8,2,0.8,3.1c0,1.2-0.3,2.2-0.8,3.1s-1.2,1.6-2.1,2.1c-0.9,0.5-1.9,0.8-3.1,0.8
		c-1.2,0-2.2-0.3-3.1-0.8c-0.9-0.5-1.6-1.2-2.1-2.1c-0.5-0.9-0.8-2-0.8-3.1C317.1,38.2,317.4,37.1,317.9,36.2z"/>
	<path class="st0" d="M160.5,217.7c-2.9-1.6-6.3-2.4-10-2.4c-3.7,0-7.1,0.8-10,2.4c-3,1.6-5.2,3.8-6.9,6.8c-1.6,2.9-2.5,6.2-2.5,9.9
		c0,3.7,0.8,7,2.5,9.9c1.6,2.9,4,5.2,6.9,6.8c2.9,1.6,6.3,2.4,10,2.4c3.7,0,7.1-0.8,10-2.4c3-1.6,5.2-3.8,6.9-6.8
		c1.6-2.9,2.5-6.2,2.5-9.9c0-3.7-0.8-7-2.5-9.9C165.7,221.6,163.4,219.3,160.5,217.7z M160.9,241c-1,1.9-2.4,3.4-4.2,4.4
		c-1.8,1-3.8,1.6-6.2,1.6c-2.3,0-4.3-0.5-6.2-1.6c-1.8-1-3.2-2.5-4.2-4.4c-1-1.9-1.5-4.1-1.5-6.5c0-2.4,0.5-4.6,1.5-6.5
		c1-1.9,2.4-3.4,4.2-4.4c1.8-1,3.8-1.5,6.2-1.5c2.3,0,4.3,0.5,6.2,1.5c1.8,1,3.2,2.5,4.2,4.4c1,1.9,1.5,4,1.5,6.5
		S161.8,239.1,160.9,241z"/>
	<path class="st0" d="M199.5,224.3c-2.2-1.3-4.6-2-7.4-2c-2,0-3.8,0.4-5.4,1.1c-1.6,0.7-3,1.8-4.2,3.1v-10.7h-7.2v37.2h7.1v-3.8
		c1.2,1.4,2.6,2.4,4.2,3.2c1.6,0.7,3.5,1.1,5.5,1.2c2.7,0,5.2-0.7,7.4-2c2.2-1.3,3.9-3.1,5.2-5.5c1.3-2.4,1.9-5.1,1.9-8.1
		s-0.7-5.8-1.9-8.1C203.4,227.5,201.7,225.6,199.5,224.3z M198,242.7c-0.7,1.4-1.7,2.4-3,3.2c-1.3,0.7-2.7,1.1-4.3,1.1
		c-1.6,0-3.1-0.3-4.3-1.1c-1.3-0.8-2.3-1.8-3-3.2c-0.7-1.4-1-3-1-4.7c0-1.8,0.3-3.3,1-4.7c0.7-1.4,1.7-2.4,3-3.2
		c1.3-0.8,2.7-1.2,4.3-1.2c1.6,0,3.1,0.4,4.3,1.2c1.3,0.8,2.3,1.8,3,3.2c0.7,1.3,1,2.9,1,4.7C199.1,239.7,198.8,241.3,198,242.7z"/>
	<path class="st0" d="M219.3,227.2v-4.3h-7.1h-0.1v30.2h7.3v-15.7c0-2.3,0.7-4.2,2-5.5c1.4-1.4,3.2-2.1,5.4-2.1v-7.4
		c-1.9,0.1-3.5,0.7-4.8,1.7C220.7,225,219.8,226.1,219.3,227.2z"/>
	<path class="st0" d="M253.7,224.4c-2.4-1.4-5.2-2.1-8.3-2.1c-3,0-5.8,0.7-8.1,2c-2.4,1.3-4.2,3.2-5.6,5.5c-1.4,2.4-2,5.1-2,8.2
		c0,3,0.7,5.7,2,8.1c1.3,2.4,3.1,4.2,5.5,5.5c2.4,1.3,5.1,2,8.1,2c3.8,0,7.1-1,9.8-3c2.7-2,4.6-4.7,5.6-8.1h-7.6
		c-0.7,1.4-1.6,2.5-3.1,3.4c-1.4,0.8-2.9,1.2-4.6,1.2c-2.1,0-3.9-0.6-5.4-1.9s-2.4-2.9-2.7-4.9h24c0.1-0.8,0.2-1.5,0.2-2.2
		c0-3-0.7-5.6-2-8C258,227.7,256.1,225.8,253.7,224.4z M237.5,234.8c0.5-1.9,1.5-3.4,3-4.4c1.4-1,3.1-1.6,5-1.6
		c1.9,0,3.5,0.5,4.9,1.6c1.4,1,2.4,2.5,3,4.3L237.5,234.8z"/>
	<path class="st0" d="M273.9,227.2v-4.3h-7.1h-0.1v30.2h7.3v-15.7c0-2.3,0.7-4.2,2-5.5c1.4-1.4,3.2-2.1,5.4-2.1v-7.4
		c-1.9,0.1-3.5,0.7-4.8,1.7C275.3,225,274.4,226.1,273.9,227.2z"/>
	<path class="st0" d="M308.3,224.3c-2.4-1.3-5.2-2-8.2-2s-5.8,0.7-8.2,2c-2.4,1.3-4.3,3.1-5.6,5.5c-1.3,2.4-2,5.1-2,8.1
		s0.7,5.8,2,8.1c1.3,2.4,3.2,4.2,5.6,5.5c2.4,1.3,5.1,2,8.2,2c3.1,0,5.8-0.7,8.2-2c2.4-1.3,4.3-3.1,5.6-5.5c1.3-2.4,2-5.1,2-8.1
		s-0.7-5.8-2-8.1C312.6,227.5,310.8,225.6,308.3,224.3z M307.5,242.7c-0.7,1.4-1.8,2.4-3,3.2c-1.3,0.8-2.7,1.2-4.4,1.2
		c-1.6,0-3.1-0.4-4.4-1.2c-1.3-0.8-2.3-1.8-3-3.2c-0.7-1.4-1-3-1-4.7c0-1.8,0.3-3.4,1-4.7c0.7-1.4,1.6-2.4,3-3.2
		c1.3-0.8,2.7-1.2,4.4-1.2c1.6,0,3.1,0.4,4.4,1.2c1.3,0.7,2.4,1.8,3,3.2c0.7,1.4,1,3,1,4.7C308.6,239.7,308.2,241.3,307.5,242.7z"/>
	<path class="st0" d="M342.5,239.4c-0.9-1.2-2.1-2-3.4-2.5c-1.3-0.5-3.1-1.2-5.5-1.9c-0.7-0.2-1.2-0.3-1.3-0.4
		c-1.6-0.5-2.8-1-3.5-1.4c-0.7-0.4-1-1-1-1.8s0.4-1.5,1-2c0.7-0.5,1.5-0.8,2.6-0.8c1.1,0,2,0.3,2.8,0.9c0.8,0.6,1.2,1.4,1.2,2.3h7.1
		c0-1.8-0.5-3.5-1.5-4.9c-1-1.5-2.4-2.6-4.1-3.5c-1.7-0.8-3.6-1.2-5.8-1.2c-2.1,0-3.9,0.4-5.5,1.2c-1.6,0.8-2.9,1.9-3.7,3.3
		c-0.9,1.4-1.4,3-1.4,4.8s0.4,3.2,1.2,4.3c0.8,1.1,1.8,1.9,3,2.5c1.2,0.5,2.7,1.1,4.6,1.7l1,0.3c0.7,0.2,1.3,0.4,1.9,0.5
		c1.6,0.4,2.7,0.9,3.5,1.3c0.7,0.4,1,1.1,1,2c0,1-0.4,1.7-1.4,2.3c-0.9,0.5-2,0.8-3.2,0.8c-1.6,0-2.9-0.5-3.9-1.4
		c-1-0.9-1.5-2.1-1.5-3.6h-7.1c0,2.2,0.5,4.2,1.5,5.9s2.4,3.1,4.3,4.1c1.8,0.9,4,1.4,6.4,1.5c2.4,0,4.4-0.4,6.3-1.2
		c1.8-0.8,3.2-1.9,4.3-3.4c1-1.4,1.5-3.1,1.5-5.1C344,242.1,343.5,240.5,342.5,239.4z"/>
	<path class="st0" d="M155.2,187.7c2.4-4.2,3.6-9.1,3.6-14.6v-66.6h-16.4v67c0,3.6-1.1,6.5-3.4,8.8c-2.3,2.3-5.1,3.4-8.7,3.5V201
		c5.5,0,10.5-1.2,14.8-3.5C149.4,195.2,152.8,192,155.2,187.7z"/>
	<path class="st0" d="M251.5,159.9c1-0.7,2.1-1,3.6-1c1.6,0,2.9,0.4,3.9,1.2c1,0.8,1.5,1.8,1.5,3.1h15.3c0-3.5-0.9-6.6-2.7-9.4
		c-1.8-2.8-4.3-4.9-7.6-6.5c-3.2-1.6-6.9-2.4-11.1-2.4c-4,0-7.5,0.7-10.6,2.1c-3.1,1.4-5.5,3.5-7.2,6.1c-1.7,2.6-2.6,5.7-2.6,9.2
		c0,3.5,0.8,6.3,2.4,8.3c1.6,2.1,3.6,3.6,5.8,4.5c2.2,0.9,4.9,1.8,8.2,2.6l2.1,0.6l2.2,0.6c3,0.7,5.1,1.4,6.4,2
		c1.2,0.7,1.9,1.6,1.9,3c0,1.4-0.7,2.4-2.1,3.1c-1.4,0.7-2.9,1-4.7,1c-2.4,0-4.4-0.6-5.9-1.9s-2.3-2.9-2.3-4.9h-15.7
		c0,4.1,0.9,7.6,2.9,10.7c1.9,3.1,4.6,5.5,8.1,7.2c3.5,1.8,7.5,2.6,12.1,2.5c6.9,0,12.4-1.5,16.5-4.6c4.1-3.1,6.2-7.4,6.2-13
		c0-3.5-0.8-6.3-2.5-8.5c-1.6-2.1-3.7-3.8-6.2-4.9c-2.5-1-5.6-2.1-9.3-3.1l-1.9-0.5c-3.1-0.8-5.3-1.5-6.4-2
		c-1.2-0.5-1.7-1.4-1.7-2.5C250,161.5,250.5,160.6,251.5,159.9z"/>
	<polygon class="st0" points="325.8,121.6 312.8,117.4 306.9,137.9 318.5,141.7 	"/>
	<path class="st0" d="M342.1,173.7c0-5.4-1.2-10.2-3.6-14.6c-2.4-4.3-5.7-7.7-10.1-10.2c-4.3-2.5-9.3-3.7-14.9-3.7
		s-10.6,1.2-14.9,3.6c-4.3,2.4-7.7,5.7-10.2,10c-2.4,4.3-3.6,9.2-3.6,14.8c0,5.5,1.2,10.4,3.6,14.7c2.4,4.3,5.7,7.6,9.9,10
		c4.2,2.4,9.1,3.6,14.4,3.5c6.9,0,12.8-1.8,17.7-5.3c5-3.6,8.4-8.5,10.3-14.6h-16.3c-1.1,2-2.6,3.5-4.6,4.6s-4.2,1.6-6.6,1.6
		c-3.2,0-6-0.9-8.4-2.8c-2.4-1.9-3.8-4.4-4.4-7.5h41.3C342,176.4,342.1,175.1,342.1,173.7z M301.3,167.7c1-2.6,2.6-4.7,4.7-6.2
		c2.1-1.5,4.6-2.3,7.5-2.3c2.9,0,5.4,0.7,7.5,2.3c2.1,1.5,3.7,3.6,4.6,6.2L301.3,167.7z"/>
	<path class="st0" d="M221.9,188.2c2.4-4.3,3.6-9.2,3.6-14.8c0-0.1,0-0.2,0-0.3h-16.3c0,0.1,0,0.2,0,0.3c0,4-1.2,7.1-3.5,9.6
		c-2.3,2.4-5.3,3.7-9,3.7c-3.7,0-6.7-1.2-9-3.7c-2.3-2.4-3.5-5.6-3.5-9.6c0-0.1,0-0.2,0-0.3h-16.3c0,0.1,0,0.2,0,0.3
		c0,5.5,1.2,10.5,3.6,14.8c2.4,4.3,5.8,7.6,10.2,10c4.3,2.4,9.3,3.6,14.9,3.6s10.6-1.2,14.9-3.6
		C216.1,195.9,219.5,192.5,221.9,188.2z"/>
	<path class="st0" d="M229.8,164.7l-1.6-1.4c-1.4-10.2-7.7-19.8-16.4-24.9v11.2c0,1-0.8,1.8-1.8,1.8c-1,0-1.8-0.8-1.8-1.8v-12.9
		c-1.2-0.5-2.5-0.9-3.8-1.3l-1.8-0.4l-0.1,17c0,1.6-0.7,3.1-1.8,4.2c-1.1,1.1-2.6,1.8-4.2,1.8c-3.2,0-5.9-2.6-5.9-5.9v-17l-1.8,0.4
		c-1.3,0.3-2.6,0.8-3.8,1.3v12.9c0,1-0.8,1.8-1.8,1.8s-1.8-0.8-1.8-1.8v-11.2c-8.7,5.1-15.1,14.7-16.4,24.9l-1.6,1.4
		c-1.2,1-0.4,2.9,1,2.9h64.3C230.4,167.6,231.1,165.7,229.8,164.7z"/>
	<path class="st0" d="M144.7,58.4c0-2.3-1.8-4.1-4.1-4.1H122V41.3c8.3-1.9,14.6-9.3,14.6-18.2c0-10.3-8.3-18.7-18.7-18.7
		c-10.3,0-18.7,8.3-18.7,18.7c0,8.9,6.3,16.4,14.7,18.2v13.1H95.2c-2.3,0-4.1,1.8-4.1,4.1s1.8,4.1,4.1,4.1h18.7v199.2
		c0,2.3,1.8,4.1,4.1,4.1c2.3,0,4.1-1.8,4.1-4.1V62.5h18.6C142.9,62.5,144.7,60.7,144.7,58.4z M117.9,33.7
		c-5.8-0.1-10.6-4.8-10.6-10.6c0-5.8,4.7-10.6,10.6-10.6c5.8,0,10.6,4.7,10.6,10.6C128.5,28.9,123.8,33.7,117.9,33.7z"/>
	<path class="st0" d="M163.7,62.5h36h102.4h36c2.3,0,4.1-1.8,4.1-4.1c0.1-2.3-1.8-4.1-4-4.1h-36H199.7h-36c-2.3,0-4.1,1.8-4.1,4.1
		C159.6,60.7,161.4,62.5,163.7,62.5z"/>
</g>
</svg>
