<?xml version="1.0" encoding="utf-8"?>
<!-- Generator: Adobe Illustrator 27.1.1, SVG Export Plug-In . SVG Version: 6.00 Build 0)  -->
<svg version="1.1" id="Capa_1" xmlns="http://www.w3.org/2000/svg" xmlns:xlink="http://www.w3.org/1999/xlink" x="0px" y="0px"
	 viewBox="0 0 650 500" style="enable-background:new 0 0 650 500;" xml:space="preserve">
<style type="text/css">
	.st0{fill:#264080;}
	.st1{fill:#093147;}
	.st2{fill:#3C3C3B;}
	.st3{fill:#F08313;}
	.st4{fill:#253F80;}
</style>
<g>
	<path class="st0" d="M192.7,466.9h-70.5v-27.3h70.5V429H168v-26.8h24.7V393h-29.1H120v-26.8h72.8v-12.4h-25.7v-27.3h25.7v-8.7h-30
		H120v-27.3h72.8v-8.7h-77.1c-2.4,0-4.4,2-4.4,4.4v36c0,2.4,2,4.4,4.4,4.4h42.8v31h-42.8c-2.4,0-4.4,2-4.4,4.4V393H66.6
		c-2.4,0-4.4,2-4.4,4.4v33.5H20.9c-2.4,0-4.4,2-4.4,4.4v36c0,2.4,2,4.4,4.4,4.4h97h74.8V466.9z M113.6,466.9H25.3v-27.3h88.3V466.9z
		 M71,429v-27.3h42.7c0.6,0.3,1.2,0.5,1.9,0.5h43.7V429H71z"/>
	<g>
		<path class="st1" d="M329.4,228.8c-5.4-2.7-9.6-6.4-12.7-11.1c-3-4.7-4.5-10.2-4.5-16.3h22.9c0,3.4,1.1,6.3,3.3,8.5
			c2.2,2.2,5.2,3.3,9.2,3.3c3.1,0,5.5-0.7,7.3-2c1.8-1.3,2.7-3.2,2.7-5.7c0-2.6-1.1-4.7-3.2-6.2c-2.1-1.6-5.7-3.4-10.5-5.6l-2.2-1
			c-6-2.6-10.9-5-14.7-7.3c-3.7-2.3-6.8-5.1-9.3-8.5c-2.4-3.4-3.7-7.6-3.7-12.5c0-5.3,1.4-9.8,4.2-13.7c2.8-3.9,6.6-6.9,11.4-8.9
			c4.8-2.1,10.2-3.1,16.1-3.1c6.2,0,11.6,1.2,16.3,3.7c4.7,2.5,8.3,6,10.9,10.4c2.6,4.5,3.8,9.6,3.8,15.5h-21.8c0-3-0.8-5.3-2.5-7
			c-1.7-1.7-3.9-2.6-6.8-2.6c-2.5,0-4.6,0.7-6.3,2c-1.7,1.3-2.5,3-2.5,5c0,1.5,0.5,2.7,1.5,3.7c1,1,2.4,1.9,4.1,2.7
			c1.8,0.8,4.7,2.1,8.7,3.7c0.4,0.1,1.8,0.6,4.2,1.6c5.3,2.1,9.7,4.2,13.3,6.4c3.6,2.2,6.5,5,8.7,8.5c2.2,3.4,3.3,7.7,3.3,12.7
			c0,5.7-1.4,10.7-4.2,14.9c-2.8,4.2-6.7,7.4-11.6,9.6c-5,2.2-10.6,3.3-17.1,3.3C341,232.8,334.8,231.5,329.4,228.8z"/>
		<path class="st1" d="M407,228c-5.2-3.2-9.4-7.8-12.4-13.7c-3.1-5.9-4.6-12.6-4.6-20c0-7.5,1.5-14.1,4.6-19.9
			c3.1-5.8,7.2-10.3,12.4-13.6c5.2-3.2,11.1-4.9,17.6-4.9c4.5,0,8.6,0.8,12.4,2.4c3.7,1.6,7,3.9,9.7,6.9v-8h21.2v74.4h-21.2v-8.1
			c-2.7,3.1-6,5.4-9.7,7c-3.7,1.6-7.9,2.4-12.4,2.4C418.1,232.8,412.3,231.2,407,228z M416.5,207.1c3.1,3.2,7.1,4.9,12.1,4.9
			c4.9,0,8.9-1.6,12-4.9c3.1-3.2,4.7-7.5,4.7-12.8c0-5.2-1.6-9.4-4.7-12.7c-3.1-3.2-7.1-4.9-12-4.9c-5,0-9,1.6-12.1,4.8
			c-3.1,3.2-4.6,7.4-4.6,12.7S413.5,203.9,416.5,207.1z"/>
		<path class="st1" d="M486.2,157.1H508v9.3c1.3-2.8,3.7-5.3,7.2-7.4c3.5-2.1,7.8-3.1,12.9-3.1c5.6,0,10.6,1.4,15.1,4.1
			c4.5,2.7,8,6.5,10.6,11.3c2.6,4.8,3.8,10.4,3.8,16.5v43.7h-22.2v-41.9c0-4.1-1.2-7.5-3.7-10c-2.5-2.6-5.7-3.8-9.8-3.8
			c-4,0-7.2,1.3-9.7,3.8c-2.5,2.6-3.7,5.9-3.7,10v41.9h-22.3V157.1z"/>
	</g>
	<g>
		<path class="st2" d="M315.5,87.6c-2.6-1.4-4.5-3.4-6-5.9c-1.4-2.5-2.1-5.4-2.1-8.7c0-3.2,0.7-6.1,2.1-8.7c1.4-2.5,3.4-4.5,6-5.9
			c2.6-1.4,5.4-2.1,8.7-2.1c2.7,0,5.3,0.6,7.6,1.7c2.3,1.1,4.2,2.7,5.7,4.7c1.5,2,2.5,4.3,2.9,6.9h-3.1c-0.4-2.1-1.2-3.9-2.5-5.6
			c-1.2-1.6-2.8-2.9-4.6-3.8c-1.8-0.9-3.9-1.3-6.1-1.3c-2.7,0-5,0.6-7.1,1.8c-2.1,1.2-3.7,2.8-4.9,5c-1.2,2.1-1.8,4.6-1.8,7.3
			s0.6,5.2,1.8,7.3c1.2,2.1,2.8,3.8,4.9,5c2.1,1.2,4.5,1.8,7.1,1.8c2.2,0,4.2-0.4,6.1-1.3c1.9-0.9,3.4-2.2,4.7-3.8
			c1.2-1.6,2.1-3.5,2.4-5.6h3.1c-0.4,2.6-1.4,5-2.9,7s-3.4,3.6-5.8,4.7c-2.3,1.1-4.9,1.7-7.6,1.7C321,89.7,318.1,89,315.5,87.6z"/>
		<path class="st2" d="M350.4,88c-2.1-1.2-3.7-2.8-4.9-4.8c-1.2-2.1-1.8-4.4-1.8-7.1c0-2.7,0.6-5,1.8-7.1c1.2-2.1,2.8-3.7,4.9-4.8
			c2.1-1.2,4.5-1.7,7.2-1.7c2.7,0,5.1,0.6,7.2,1.7c2.1,1.2,3.7,2.8,4.9,4.8c1.2,2.1,1.8,4.4,1.8,7.1c0,2.7-0.6,5-1.8,7.1
			c-1.2,2.1-2.8,3.7-4.9,4.8c-2.1,1.2-4.5,1.7-7.2,1.7C354.9,89.7,352.5,89.2,350.4,88z M348.1,81.8c0.9,1.7,2.2,3,3.8,3.9
			c1.6,0.9,3.5,1.4,5.6,1.4c2.1,0,4-0.5,5.6-1.4c1.6-0.9,2.9-2.2,3.9-3.9c0.9-1.7,1.4-3.6,1.4-5.7c0-2.1-0.5-4.1-1.4-5.7
			c-0.9-1.7-2.2-3-3.9-3.9c-1.6-0.9-3.5-1.4-5.6-1.4c-2.1,0-4,0.5-5.6,1.4c-1.6,0.9-2.9,2.2-3.8,3.9c-0.9,1.7-1.4,3.6-1.4,5.7
			C346.7,78.2,347.2,80.1,348.1,81.8z"/>
		<path class="st2" d="M376.4,62.8h2.9V68c0.8-1.7,2-3,3.6-4.1c1.7-1,3.6-1.5,5.8-1.5c2.2,0,4.2,0.5,6,1.5c1.8,1,3.1,2.4,4.1,4.2
			c1,1.8,1.5,3.8,1.5,6.2v15.1h-2.9V74.1c0-1.8-0.4-3.3-1.2-4.7s-1.8-2.5-3.2-3.2c-1.4-0.8-2.9-1.2-4.7-1.2c-1.8,0-3.3,0.4-4.7,1.2
			c-1.4,0.8-2.4,1.9-3.2,3.2c-0.8,1.4-1.1,3-1.1,4.7v15.2h-2.9V62.8z"/>
		<path class="st2" d="M409,88.5c-1.5-0.9-2.6-2-3.4-3.6c-0.8-1.5-1.2-3.3-1.2-5.2h2.9c0,2.2,0.6,4,1.9,5.4s2.9,2.1,5,2.1
			c1.7,0,3.1-0.5,4.3-1.4c1.2-0.9,1.8-2.1,1.8-3.4c0-0.9-0.2-1.6-0.7-2.1c-0.5-0.6-1-1-1.7-1.3c-0.7-0.3-1.7-0.7-2.9-1.1l-1.3-0.4
			c-1.9-0.7-3.4-1.3-4.4-1.8c-1-0.5-1.9-1.2-2.7-2.2c-0.8-1-1.1-2.3-1.1-3.9c0-2.2,0.7-4,2.2-5.3c1.5-1.3,3.4-2,5.8-2
			c1.7,0,3.1,0.4,4.5,1.1c1.3,0.7,2.3,1.7,3.1,3c0.7,1.3,1.1,2.7,1.1,4.3h-2.9c0-1.7-0.5-3.1-1.6-4.1c-1.1-1.1-2.4-1.6-4.1-1.6
			c-1.5,0-2.8,0.4-3.7,1.2c-1,0.8-1.4,1.9-1.4,3.3c0,1.1,0.3,2,0.8,2.6c0.6,0.7,1.2,1.2,2,1.5c0.8,0.3,2,0.8,3.6,1.4l0.8,0.3
			c1.7,0.6,3,1.1,4,1.6c1,0.5,1.9,1.2,2.5,2.1c0.7,0.9,1,2,1,3.4c0,1.4-0.4,2.7-1.2,3.9c-0.8,1.2-1.9,2.1-3.3,2.7
			c-1.4,0.7-2.9,1-4.6,1C412.2,89.7,410.5,89.3,409,88.5z"/>
		<path class="st2" d="M431.4,65.4h-5.8v-2.6h5.8v-6.1h2.9v6.1h5.8v2.6h-5.8v23.9h-2.9V65.4z"/>
		<path class="st2" d="M443,62.8h2.9v5.1c0.8-1.6,2-2.9,3.6-3.9c1.6-1,3.4-1.6,5.5-1.6v2.9c-1.8,0-3.3,0.4-4.7,1.2
			c-1.4,0.8-2.5,1.9-3.2,3.3c-0.8,1.4-1.2,3-1.2,4.8v14.8H443V62.8z"/>
		<path class="st2" d="M482.3,89.3h-2.9v-5.1c-0.8,1.7-2,3-3.6,4.1c-1.7,1-3.6,1.5-5.8,1.5c-2.2,0-4.2-0.5-6-1.5
			c-1.8-1-3.1-2.4-4.1-4.2c-1-1.8-1.5-3.8-1.5-6.2V62.8h2.9V78c0,1.8,0.4,3.3,1.2,4.7s1.8,2.5,3.2,3.2c1.4,0.8,2.9,1.2,4.7,1.2
			s3.3-0.4,4.7-1.2c1.4-0.8,2.4-1.9,3.2-3.2c0.8-1.4,1.1-3,1.1-4.7V62.8h2.9V89.3z"/>
		<path class="st2" d="M493.8,88c-2.1-1.2-3.7-2.8-4.9-4.8c-1.2-2.1-1.8-4.4-1.8-7.1c0-2.7,0.6-5,1.8-7.1c1.2-2.1,2.8-3.7,4.9-4.8
			c2.1-1.2,4.5-1.7,7.2-1.7c2.4,0,4.6,0.5,6.5,1.4c1.9,1,3.5,2.3,4.7,4c1.2,1.7,2,3.7,2.3,6h-3c-0.5-2.7-1.6-4.8-3.5-6.4
			c-1.9-1.6-4.2-2.4-6.9-2.4c-2.1,0-4,0.5-5.6,1.4c-1.6,0.9-2.9,2.2-3.8,3.9c-0.9,1.7-1.4,3.6-1.4,5.7c0,2.1,0.5,4.1,1.4,5.7
			c0.9,1.7,2.2,3,3.8,3.9c1.6,0.9,3.5,1.4,5.6,1.4c2.7,0,4.9-0.7,6.7-2.2s3-3.4,3.6-5.9h3.1c-0.7,3.3-2.2,5.8-4.5,7.8
			c-2.4,1.9-5.3,2.9-8.8,2.9C498.3,89.7,495.9,89.2,493.8,88z"/>
		<path class="st2" d="M522.7,65.4h-5.8v-2.6h5.8v-6.1h2.9v6.1h5.8v2.6h-5.8v23.9h-2.9V65.4z"/>
		<path class="st2" d="M540.5,88c-2.1-1.2-3.7-2.8-4.9-4.8c-1.2-2.1-1.8-4.4-1.8-7.1c0-2.7,0.6-5,1.8-7.1c1.2-2.1,2.8-3.7,4.9-4.8
			c2.1-1.2,4.5-1.7,7.2-1.7c2.7,0,5.1,0.6,7.2,1.7c2.1,1.2,3.7,2.8,4.9,4.8c1.2,2.1,1.8,4.4,1.8,7.1c0,2.7-0.6,5-1.8,7.1
			s-2.8,3.7-4.9,4.8c-2.1,1.2-4.5,1.7-7.2,1.7C545,89.7,542.6,89.2,540.5,88z M538.2,81.8c0.9,1.7,2.2,3,3.8,3.9
			c1.6,0.9,3.5,1.4,5.6,1.4c2.1,0,4-0.5,5.6-1.4c1.6-0.9,2.9-2.2,3.8-3.9c0.9-1.7,1.4-3.6,1.4-5.7c0-2.1-0.5-4.1-1.4-5.7
			c-0.9-1.7-2.2-3-3.8-3.9c-1.6-0.9-3.5-1.4-5.6-1.4c-2.1,0-4,0.5-5.6,1.4c-1.6,0.9-2.9,2.2-3.8,3.9c-0.9,1.7-1.4,3.6-1.4,5.7
			C536.8,78.2,537.3,80.1,538.2,81.8z"/>
		<path class="st2" d="M566.5,62.8h2.9v5.1c0.8-1.6,2-2.9,3.6-3.9c1.6-1,3.4-1.6,5.5-1.6v2.9c-1.8,0-3.3,0.4-4.7,1.2
			c-1.4,0.8-2.5,1.9-3.2,3.3c-0.8,1.4-1.2,3-1.2,4.8v14.8h-2.9V62.8z"/>
		<path class="st2" d="M587.4,88c-2-1.2-3.6-2.8-4.7-4.8s-1.7-4.4-1.7-7.1c0-2.7,0.6-5,1.7-7.1c1.1-2.1,2.7-3.7,4.7-4.8
			c2-1.2,4.3-1.7,6.9-1.7c2.5,0,4.7,0.5,6.6,1.6c1.9,1,3.4,2.5,4.5,4.4v-5.5h2.9v26.5h-2.9v-5.5c-1.1,1.9-2.6,3.3-4.5,4.4
			c-1.9,1-4.1,1.6-6.6,1.6C591.8,89.7,589.5,89.2,587.4,88z M585.4,81.8c0.9,1.7,2.2,3,3.8,3.9c1.6,0.9,3.5,1.4,5.6,1.4
			s3.9-0.5,5.6-1.4c1.6-0.9,2.9-2.2,3.8-3.9c0.9-1.7,1.4-3.6,1.4-5.7c0-2.1-0.5-4.1-1.4-5.7c-0.9-1.7-2.2-3-3.8-3.9
			c-1.6-0.9-3.5-1.4-5.6-1.4s-3.9,0.5-5.6,1.4c-1.6,0.9-2.9,2.2-3.8,3.9c-0.9,1.7-1.4,3.6-1.4,5.7C584,78.2,584.5,80.1,585.4,81.8z"
			/>
	</g>
	<g>
		<path class="st1" d="M262.4,461.7c-5.3-2.9-9.5-7-12.5-12.3c-3-5.3-4.5-11.3-4.5-18.1c0-6.8,1.5-12.8,4.5-18.1
			c3-5.3,7.1-9.4,12.5-12.3c5.3-2.9,11.4-4.4,18.2-4.4c6.8,0,12.9,1.5,18.2,4.4c5.3,2.9,9.5,7,12.5,12.3c3,5.3,4.5,11.3,4.5,18.1
			c0,6.8-1.5,12.9-4.5,18.1c-3,5.3-7.1,9.4-12.5,12.3c-5.3,2.9-11.4,4.4-18.2,4.4C273.8,466.1,267.7,464.6,262.4,461.7z
			 M261.8,443.1c1.8,3.5,4.4,6.2,7.7,8.1c3.3,1.9,7,2.9,11.2,2.9c4.2,0,8-1,11.2-2.9c3.3-1.9,5.8-4.6,7.6-8
			c1.8-3.4,2.7-7.4,2.7-11.9c0-4.5-0.9-8.4-2.7-11.8c-1.8-3.4-4.3-6.1-7.6-8c-3.3-1.9-7-2.8-11.2-2.8c-4.2,0-7.9,0.9-11.2,2.8
			c-3.3,1.9-5.8,4.6-7.7,8c-1.8,3.4-2.7,7.4-2.7,11.8C259,435.7,259.9,439.7,261.8,443.1z"/>
		<path class="st1" d="M346.5,464.1c-3-1.4-5.6-3.3-7.7-5.8v6.9h-12.9v-67.7H339V417c2.1-2.5,4.6-4.4,7.6-5.7c3-1.3,6.2-2,9.9-2
			c5,0,9.4,1.2,13.4,3.6c4,2.4,7.1,5.8,9.4,10.1c2.3,4.3,3.5,9.2,3.5,14.8c0,5.6-1.1,10.5-3.4,14.8c-2.3,4.3-5.4,7.6-9.4,10
			c-4,2.4-8.5,3.6-13.4,3.6C352.8,466.1,349.5,465.4,346.5,464.1z M340.6,446.3c1.3,2.5,3.1,4.4,5.4,5.8c2.3,1.4,5,2,7.9,2
			c3,0,5.6-0.7,7.9-2c2.3-1.4,4.1-3.3,5.4-5.8c1.3-2.5,1.9-5.4,1.9-8.6c0-3.2-0.6-6.1-1.9-8.5c-1.3-2.5-3.1-4.4-5.4-5.8
			c-2.3-1.4-5-2.1-7.9-2.1c-3,0-5.6,0.7-7.9,2.1c-2.3,1.4-4.1,3.3-5.4,5.8c-1.3,2.5-1.9,5.3-1.9,8.5
			C338.7,440.9,339.3,443.8,340.6,446.3z"/>
		<path class="st1" d="M392.9,410.2h13v7.9c0.9-2,2.6-3.9,4.9-5.7c2.4-1.8,5.3-2.9,8.8-3.1v13.4c-4.1,0-7.4,1.3-9.9,3.8
			c-2.5,2.5-3.7,5.9-3.7,10.1v28.6h-13.2V410.2z"/>
		<path class="st1" d="M438.3,462.5c-4.3-2.4-7.6-5.7-10-10c-2.4-4.3-3.6-9.2-3.6-14.7c0-5.6,1.2-10.5,3.7-14.9
			c2.5-4.3,5.8-7.7,10.2-10.1c4.3-2.4,9.3-3.6,14.8-3.6c5.6,0,10.7,1.3,15.1,3.8c4.4,2.5,7.8,6,10.2,10.4c2.4,4.4,3.6,9.2,3.6,14.6
			c0,1.3-0.1,2.6-0.3,4h-43.6c0.5,3.7,2.1,6.7,4.9,9c2.8,2.3,6.1,3.4,9.9,3.4c3,0,5.8-0.7,8.3-2.2c2.6-1.5,4.4-3.5,5.6-6.1H481
			c-1.9,6.2-5.3,11.1-10.2,14.7c-4.9,3.6-10.8,5.4-17.8,5.4C447.5,466.1,442.6,464.9,438.3,462.5z M467.9,431.8
			c-1.1-3.3-2.9-6-5.5-7.9c-2.6-1.9-5.5-2.9-8.9-2.9c-3.5,0-6.5,1-9.1,2.9c-2.6,1.9-4.4,4.6-5.4,8L467.9,431.8z"/>
		<path class="st1" d="M492.3,410.2h13v7.9c0.9-2,2.6-3.9,4.9-5.7c2.4-1.8,5.3-2.9,8.8-3.1v13.4c-4.1,0-7.4,1.3-9.9,3.8
			c-2.5,2.5-3.7,5.9-3.7,10.1v28.6h-13.2V410.2z"/>
		<path class="st1" d="M538,462.5c-4.4-2.4-7.8-5.7-10.2-10c-2.4-4.3-3.6-9.3-3.6-14.8s1.2-10.5,3.6-14.8c2.4-4.3,5.8-7.6,10.2-10
			c4.4-2.4,9.4-3.6,15-3.6c5.6,0,10.6,1.2,15,3.6c4.4,2.4,7.8,5.7,10.2,10c2.4,4.3,3.6,9.2,3.6,14.8s-1.2,10.5-3.6,14.8
			s-5.8,7.7-10.2,10c-4.4,2.4-9.4,3.6-15,3.6C547.3,466.1,542.3,464.9,538,462.5z M539.6,446.3c1.3,2.5,3.1,4.4,5.4,5.8s5,2.1,8,2.1
			c3,0,5.7-0.7,8-2.1c2.3-1.4,4.2-3.3,5.5-5.8c1.3-2.5,1.9-5.4,1.9-8.6c0-3.2-0.7-6.1-1.9-8.6s-3.1-4.5-5.5-5.8
			c-2.3-1.4-5-2.1-8-2.1c-3,0-5.6,0.7-8,2.1s-4.1,3.3-5.4,5.8c-1.3,2.5-1.9,5.4-1.9,8.6C537.7,440.9,538.3,443.8,539.6,446.3z"/>
		<path class="st1" d="M599.2,463.5c-3.4-1.7-6-4.2-7.8-7.4c-1.8-3.2-2.7-6.8-2.7-10.8h13c0,2.7,0.9,4.9,2.7,6.6
			c1.8,1.7,4.2,2.6,7.1,2.6c2.2,0,4.1-0.5,5.8-1.4c1.7-1,2.5-2.3,2.5-4.1c0-1.6-0.6-2.8-1.9-3.6c-1.3-0.8-3.4-1.6-6.3-2.4
			c-1.2-0.3-2.3-0.6-3.5-1l-1.9-0.6c-3.4-1.1-6.2-2.1-8.3-3.1c-2.1-1-3.9-2.5-5.4-4.5s-2.2-4.6-2.2-7.9c0-3.3,0.8-6.3,2.5-8.8
			c1.6-2.6,3.9-4.6,6.8-6c2.9-1.4,6.2-2.2,10-2.2c3.9,0,7.4,0.7,10.5,2.2s5.6,3.6,7.4,6.3c1.8,2.7,2.7,5.7,2.7,9h-12.9
			c0-1.7-0.7-3.1-2.1-4.2c-1.4-1.1-3.1-1.6-5.1-1.6c-1.9,0-3.5,0.5-4.7,1.4c-1.2,0.9-1.9,2.2-1.9,3.7c0,1.5,0.6,2.6,1.9,3.3
			c1.2,0.7,3.3,1.6,6.3,2.5c0.3,0.1,1.1,0.3,2.4,0.7c4.3,1.4,7.7,2.5,10,3.5c2.3,1,4.4,2.5,6.1,4.6c1.8,2.1,2.7,4.9,2.7,8.5
			c0,3.6-0.9,6.7-2.8,9.3s-4.5,4.7-7.8,6.1c-3.3,1.4-7.1,2.1-11.4,2.1C606.4,466.1,602.5,465.2,599.2,463.5z"/>
	</g>
	<g>
		<path class="st3" d="M259.8,336.5c4.1-4.1,6.1-9.5,6.1-16V198.5h29.9v121.3c0,10-2.2,18.9-6.6,26.5c-4.4,7.7-10.5,13.6-18.3,17.8
			c-7.8,4.2-16.8,6.3-26.9,6.3v-27.6C250.5,342.7,255.7,340.7,259.8,336.5z"/>
		<path class="st3" d="M449.5,367.3c-6.3-3.1-11.2-7.5-14.7-13.1c-3.5-5.6-5.2-12.1-5.2-19.5h28.5c0,3.7,1.4,6.7,4.1,9
			c2.7,2.3,6.3,3.4,10.7,3.4c3.2,0,6-0.6,8.5-1.9c2.5-1.3,3.8-3.1,3.8-5.6c0-2.5-1.2-4.2-3.4-5.4c-2.3-1.1-6.2-2.4-11.6-3.7l-4-1.1
			l-3.8-1.1c-5.9-1.5-10.9-3.1-14.9-4.8c-4-1.7-7.5-4.4-10.5-8.2c-3-3.8-4.4-8.8-4.4-15.2c0-6.3,1.6-11.9,4.7-16.7
			c3.1-4.8,7.5-8.5,13.1-11.1c5.6-2.6,12.1-3.9,19.3-3.9c7.6,0,14.3,1.4,20.2,4.3c5.9,2.9,10.5,6.8,13.8,11.9c3.3,5.1,5,10.8,5,17.2
			h-27.8c0-2.4-0.9-4.3-2.8-5.7c-1.8-1.5-4.2-2.2-7.1-2.2c-2.6,0-4.7,0.6-6.5,1.8c-1.8,1.2-2.7,2.9-2.7,4.9c0,2,1,3.6,3.1,4.6
			c2.1,1,6,2.2,11.7,3.7l3.5,0.9c6.8,1.8,12.5,3.8,17,5.7c4.5,2,8.3,5,11.3,8.9c3.1,3.9,4.6,9.1,4.6,15.4c0,10.1-3.8,18-11.3,23.6
			c-7.6,5.6-17.6,8.4-30.1,8.4C463.2,372,455.8,370.5,449.5,367.3z"/>
		<path class="st3" d="M549.8,365.5c-7.7-4.3-13.7-10.4-18.1-18.2c-4.3-7.8-6.5-16.7-6.5-26.7c0-10.1,2.2-19.1,6.6-26.9
			c4.4-7.8,10.6-13.9,18.5-18.2c7.9-4.3,17-6.5,27.2-6.5c10.2,0,19.3,2.2,27.1,6.7c7.9,4.5,14,10.7,18.3,18.6
			c4.3,7.9,6.5,16.7,6.5,26.5c0,2.4-0.2,4.9-0.5,7.5h-75.1c1,5.6,3.7,10.1,8,13.6c4.3,3.4,9.4,5.1,15.3,5.1c4.4,0,8.4-1,12-3
			c3.6-2,6.4-4.8,8.4-8.4h29.7c-3.5,11.2-9.7,20.1-18.8,26.6c-9,6.5-19.8,9.7-32.3,9.7C566.4,372,557.5,369.9,549.8,365.5z
			 M599.4,309.8c-1.7-4.7-4.5-8.4-8.4-11.2c-3.8-2.8-8.4-4.1-13.6-4.1c-5.3,0-9.9,1.4-13.7,4.1c-3.8,2.8-6.7,6.5-8.5,11.3
			L599.4,309.8z M565.4,255.5l10.7-37.3l23.6,7.7l-13.3,36.5L565.4,255.5z"/>
		<path class="st3" d="M387.7,319.7c0,0.2,0,0.4,0,0.6c0,7.2-2.1,13-6.3,17.4c-4.2,4.4-9.7,6.7-16.4,6.7c-6.7,0-12.2-2.2-16.4-6.7
			c-4.2-4.4-6.3-10.2-6.3-17.4c0-0.2,0-0.4,0-0.6h-29.6c0,0.2,0,0.4,0,0.6c0,10.1,2.2,19.1,6.6,26.9c4.4,7.8,10.6,13.9,18.5,18.2
			c7.9,4.3,17,6.5,27.2,6.5c10.2,0,19.3-2.2,27.2-6.5c7.9-4.3,14.1-10.4,18.5-18.2c4.4-7.8,6.6-16.8,6.6-26.9c0-0.2,0-0.4,0-0.6
			H387.7z"/>
	</g>
	<path class="st3" d="M423.3,309.6h-117c-2.7,0-4-3.4-1.9-5.2l3-2.6c2.5-18.6,14-36.1,29.9-45.4v20.3c0,1.8,1.4,3.2,3.2,3.2
		c1.8,0,3.2-1.4,3.2-3.2v-23.5c2.2-0.9,4.5-1.7,6.9-2.3l3.2-0.7h0v30.9c0,6,4.9,10.8,10.8,10.8c3,0,5.7-1.2,7.7-3.2
		c2-2,3.2-4.7,3.2-7.6l0.1-30.9h0l3.2,0.7c2.4,0.6,4.7,1.4,6.9,2.3v23.5c0,1.8,1.4,3.2,3.2,3.2s3.2-1.4,3.2-3.2v-20.3
		c15.9,9.3,27.4,26.8,29.9,45.4l3,2.6C427.3,306.2,426.1,309.6,423.3,309.6z"/>
	<path class="st0" d="M180,103.6c-4.1,0-7.4,3.3-7.4,7.4c0,4.1,3.3,7.4,7.4,7.4h34V481c0,4.1,3.3,7.4,7.4,7.4s7.4-3.3,7.4-7.4V118.3
		h33.9c4.1,0,7.4-3.3,7.4-7.4c0-4.1-3.3-7.4-7.4-7.4h-33.9V79.7c15.2-3.4,26.6-16.9,26.6-33.1c0-18.7-15.2-34-34-34
		c-18.7,0-34,15.2-34,34c0,16.2,11.4,29.8,26.7,33.1v23.9H180z M202,46.6c0-10.6,8.6-19.3,19.3-19.3c10.6,0,19.3,8.6,19.3,19.3
		c0,10.6-8.6,19.3-19.3,19.3C210.7,65.8,202,57.2,202,46.6z"/>
	<path class="st4" d="M622.3,103.5h-65.6H370.2h-65.6c-4.1,0-7.4,3.3-7.4,7.4c0,4.1,3.3,7.4,7.4,7.4h65.6h186.4h65.6
		c4.1,0,7.4-3.3,7.4-7.4C629.7,106.8,626.4,103.5,622.3,103.5z"/>
</g>
</svg>
