<?xml version="1.0" encoding="utf-8"?>
<!-- Generator: Adobe Illustrator 27.1.1, SVG Export Plug-In . SVG Version: 6.00 Build 0)  -->
<svg version="1.1" id="Capa_1" xmlns="http://www.w3.org/2000/svg" xmlns:xlink="http://www.w3.org/1999/xlink" x="0px" y="0px"
	 viewBox="0 0 200 150" style="enable-background:new 0 0 200 150;" xml:space="preserve">
<style type="text/css">
	.st0{fill:#264080;}
	.st1{fill:#093147;}
	.st2{fill:#3C3C3B;}
	.st3{fill:#F08313;}
	.st4{fill:#253F80;}
</style>
<g>
	<path class="st0" d="M60,140.5H38.9v-8.2H60v-3.2h-7.4v-8.1H60v-2.8h-8.7H38.2v-8.1H60v-3.7h-7.7v-8.2H60v-2.6h-9H38.2v-8.2H60
		v-2.6H36.8c-0.7,0-1.3,0.6-1.3,1.3V97c0,0.7,0.6,1.3,1.3,1.3h12.8v9.3H36.8c-0.7,0-1.3,0.6-1.3,1.3v9.4H22.1
		c-0.7,0-1.3,0.6-1.3,1.3v10.1H8.4c-0.7,0-1.3,0.6-1.3,1.3v10.8c0,0.7,0.6,1.3,1.3,1.3h29.2H60V140.5z M36.2,140.5H9.7v-8.2h26.5
		V140.5z M23.4,129.1v-8.2h12.8c0.2,0.1,0.4,0.1,0.6,0.1H50v8.1H23.4z"/>
	<g>
		<path class="st1" d="M101.1,69c-1.6-0.8-2.9-1.9-3.8-3.3c-0.9-1.4-1.4-3.1-1.4-4.9h6.9c0,1,0.3,1.9,1,2.5c0.7,0.7,1.6,1,2.8,1
			c0.9,0,1.7-0.2,2.2-0.6c0.6-0.4,0.8-1,0.8-1.7c0-0.8-0.3-1.4-1-1.9c-0.6-0.5-1.7-1-3.2-1.7l-0.7-0.3c-1.8-0.8-3.3-1.5-4.4-2.2
			c-1.1-0.7-2.1-1.5-2.8-2.5c-0.7-1-1.1-2.3-1.1-3.8c0-1.6,0.4-3,1.3-4.1c0.8-1.2,2-2.1,3.4-2.7c1.4-0.6,3.1-0.9,4.9-0.9
			c1.9,0,3.5,0.4,4.9,1.1c1.4,0.7,2.5,1.8,3.3,3.1c0.8,1.3,1.2,2.9,1.2,4.7h-6.5c0-0.9-0.3-1.6-0.8-2.1c-0.5-0.5-1.2-0.8-2-0.8
			c-0.8,0-1.4,0.2-1.9,0.6c-0.5,0.4-0.8,0.9-0.8,1.5c0,0.4,0.1,0.8,0.4,1.1c0.3,0.3,0.7,0.6,1.2,0.8c0.5,0.3,1.4,0.6,2.6,1.1
			c0.1,0,0.5,0.2,1.3,0.5c1.6,0.6,2.9,1.3,4,1.9c1.1,0.7,1.9,1.5,2.6,2.5c0.7,1,1,2.3,1,3.8c0,1.7-0.4,3.2-1.3,4.5
			c-0.8,1.3-2,2.2-3.5,2.9c-1.5,0.7-3.2,1-5.1,1C104.6,70.2,102.7,69.8,101.1,69z"/>
		<path class="st1" d="M124.4,68.7c-1.6-1-2.8-2.3-3.7-4.1c-0.9-1.8-1.4-3.8-1.4-6c0-2.2,0.5-4.2,1.4-6c0.9-1.7,2.2-3.1,3.7-4.1
			c1.6-1,3.3-1.5,5.3-1.5c1.4,0,2.6,0.2,3.7,0.7c1.1,0.5,2.1,1.2,2.9,2.1v-2.4h6.4v22.4h-6.4v-2.4c-0.8,0.9-1.8,1.6-2.9,2.1
			c-1.1,0.5-2.4,0.7-3.7,0.7C127.8,70.2,126,69.7,124.4,68.7z M127.3,62.4c0.9,1,2.1,1.5,3.6,1.5c1.5,0,2.7-0.5,3.6-1.5
			c0.9-1,1.4-2.3,1.4-3.8c0-1.6-0.5-2.8-1.4-3.8c-0.9-1-2.1-1.5-3.6-1.5c-1.5,0-2.7,0.5-3.6,1.4c-0.9,1-1.4,2.2-1.4,3.8
			S126.4,61.5,127.3,62.4z"/>
		<path class="st1" d="M148.2,47.4h6.5v2.8c0.4-0.8,1.1-1.6,2.2-2.2c1.1-0.6,2.4-0.9,3.9-0.9c1.7,0,3.2,0.4,4.5,1.2
			c1.4,0.8,2.4,2,3.2,3.4c0.8,1.5,1.2,3.1,1.2,5v13.1H163V57.2c0-1.2-0.4-2.2-1.1-3c-0.7-0.8-1.7-1.2-2.9-1.2
			c-1.2,0-2.2,0.4-2.9,1.2c-0.7,0.8-1.1,1.8-1.1,3v12.6h-6.7V47.4z"/>
	</g>
	<g>
		<path class="st2" d="M96.9,26.5c-0.8-0.4-1.4-1-1.8-1.8c-0.4-0.8-0.6-1.6-0.6-2.6c0-1,0.2-1.8,0.6-2.6c0.4-0.8,1-1.4,1.8-1.8
			c0.8-0.4,1.6-0.6,2.6-0.6c0.8,0,1.6,0.2,2.3,0.5c0.7,0.3,1.3,0.8,1.7,1.4c0.5,0.6,0.7,1.3,0.9,2.1h-0.9c-0.1-0.6-0.4-1.2-0.7-1.7
			c-0.4-0.5-0.8-0.9-1.4-1.1c-0.6-0.3-1.2-0.4-1.8-0.4c-0.8,0-1.5,0.2-2.1,0.5c-0.6,0.4-1.1,0.9-1.5,1.5c-0.4,0.6-0.5,1.4-0.5,2.2
			c0,0.8,0.2,1.6,0.5,2.2c0.4,0.6,0.8,1.1,1.5,1.5c0.6,0.4,1.3,0.5,2.1,0.5c0.7,0,1.3-0.1,1.8-0.4c0.6-0.3,1-0.6,1.4-1.1
			c0.4-0.5,0.6-1.1,0.7-1.7h0.9c-0.1,0.8-0.4,1.5-0.9,2.1c-0.5,0.6-1,1.1-1.7,1.4c-0.7,0.3-1.5,0.5-2.3,0.5
			C98.6,27.2,97.7,26.9,96.9,26.5z"/>
		<path class="st2" d="M107.4,26.6c-0.6-0.3-1.1-0.8-1.5-1.5c-0.4-0.6-0.5-1.3-0.5-2.1c0-0.8,0.2-1.5,0.5-2.1
			c0.4-0.6,0.8-1.1,1.5-1.5c0.6-0.3,1.4-0.5,2.2-0.5c0.8,0,1.5,0.2,2.2,0.5c0.6,0.3,1.1,0.8,1.5,1.5c0.4,0.6,0.5,1.3,0.5,2.1
			c0,0.8-0.2,1.5-0.5,2.1c-0.4,0.6-0.8,1.1-1.5,1.5c-0.6,0.3-1.4,0.5-2.2,0.5C108.8,27.2,108.1,27,107.4,26.6z M106.7,24.8
			c0.3,0.5,0.7,0.9,1.2,1.2c0.5,0.3,1.1,0.4,1.7,0.4c0.6,0,1.2-0.1,1.7-0.4c0.5-0.3,0.9-0.7,1.2-1.2c0.3-0.5,0.4-1.1,0.4-1.7
			c0-0.6-0.1-1.2-0.4-1.7c-0.3-0.5-0.7-0.9-1.2-1.2c-0.5-0.3-1.1-0.4-1.7-0.4c-0.6,0-1.2,0.1-1.7,0.4c-0.5,0.3-0.9,0.7-1.2,1.2
			c-0.3,0.5-0.4,1.1-0.4,1.7C106.3,23.7,106.5,24.3,106.7,24.8z"/>
		<path class="st2" d="M115.2,19.1h0.9v1.5c0.2-0.5,0.6-0.9,1.1-1.2c0.5-0.3,1.1-0.5,1.7-0.5c0.7,0,1.3,0.2,1.8,0.5
			c0.5,0.3,0.9,0.7,1.2,1.3c0.3,0.5,0.4,1.2,0.4,1.8V27h-0.9v-4.6c0-0.5-0.1-1-0.3-1.4c-0.2-0.4-0.6-0.7-1-1
			c-0.4-0.2-0.9-0.3-1.4-0.3s-1,0.1-1.4,0.3c-0.4,0.2-0.7,0.6-1,1c-0.2,0.4-0.3,0.9-0.3,1.4V27h-0.9V19.1z"/>
		<path class="st2" d="M125,26.8c-0.4-0.3-0.8-0.6-1-1.1c-0.2-0.5-0.4-1-0.4-1.6h0.9c0,0.7,0.2,1.2,0.6,1.6c0.4,0.4,0.9,0.6,1.5,0.6
			c0.5,0,0.9-0.1,1.3-0.4c0.4-0.3,0.5-0.6,0.5-1c0-0.3-0.1-0.5-0.2-0.6c-0.1-0.2-0.3-0.3-0.5-0.4c-0.2-0.1-0.5-0.2-0.9-0.3l-0.4-0.1
			c-0.6-0.2-1-0.4-1.3-0.5c-0.3-0.2-0.6-0.4-0.8-0.7c-0.2-0.3-0.3-0.7-0.3-1.2c0-0.7,0.2-1.2,0.7-1.6c0.4-0.4,1-0.6,1.7-0.6
			c0.5,0,0.9,0.1,1.3,0.3c0.4,0.2,0.7,0.5,0.9,0.9c0.2,0.4,0.3,0.8,0.3,1.3h-0.9c0-0.5-0.2-0.9-0.5-1.2c-0.3-0.3-0.7-0.5-1.2-0.5
			c-0.5,0-0.8,0.1-1.1,0.4c-0.3,0.2-0.4,0.6-0.4,1c0,0.3,0.1,0.6,0.3,0.8c0.2,0.2,0.4,0.4,0.6,0.5c0.2,0.1,0.6,0.2,1.1,0.4l0.2,0.1
			c0.5,0.2,0.9,0.3,1.2,0.5c0.3,0.1,0.6,0.4,0.8,0.6s0.3,0.6,0.3,1c0,0.4-0.1,0.8-0.4,1.2c-0.2,0.3-0.6,0.6-1,0.8
			c-0.4,0.2-0.9,0.3-1.4,0.3C126,27.2,125.5,27,125,26.8z"/>
		<path class="st2" d="M131.8,19.8H130v-0.8h1.7v-1.8h0.9v1.8h1.7v0.8h-1.7V27h-0.9V19.8z"/>
		<path class="st2" d="M135.2,19.1h0.9v1.5c0.2-0.5,0.6-0.9,1.1-1.2c0.5-0.3,1-0.5,1.7-0.5v0.9c-0.5,0-1,0.1-1.4,0.4
			c-0.4,0.2-0.7,0.6-1,1c-0.2,0.4-0.3,0.9-0.3,1.4V27h-0.9V19.1z"/>
		<path class="st2" d="M147,27h-0.9v-1.5c-0.2,0.5-0.6,0.9-1.1,1.2c-0.5,0.3-1.1,0.5-1.7,0.5c-0.7,0-1.3-0.2-1.8-0.5
			c-0.5-0.3-0.9-0.7-1.2-1.3s-0.4-1.2-0.4-1.8v-4.5h0.9v4.6c0,0.5,0.1,1,0.3,1.4c0.2,0.4,0.6,0.7,1,1c0.4,0.2,0.9,0.3,1.4,0.3
			c0.5,0,1-0.1,1.4-0.3c0.4-0.2,0.7-0.6,1-1c0.2-0.4,0.3-0.9,0.3-1.4v-4.6h0.9V27z"/>
		<path class="st2" d="M150.5,26.6c-0.6-0.3-1.1-0.8-1.5-1.5c-0.4-0.6-0.5-1.3-0.5-2.1c0-0.8,0.2-1.5,0.5-2.1
			c0.4-0.6,0.8-1.1,1.5-1.5c0.6-0.3,1.4-0.5,2.2-0.5c0.7,0,1.4,0.1,2,0.4c0.6,0.3,1,0.7,1.4,1.2c0.4,0.5,0.6,1.1,0.7,1.8h-0.9
			c-0.1-0.8-0.5-1.5-1-1.9c-0.6-0.5-1.3-0.7-2.1-0.7c-0.6,0-1.2,0.1-1.7,0.4c-0.5,0.3-0.9,0.7-1.2,1.2c-0.3,0.5-0.4,1.1-0.4,1.7
			c0,0.6,0.1,1.2,0.4,1.7c0.3,0.5,0.7,0.9,1.2,1.2c0.5,0.3,1.1,0.4,1.7,0.4c0.8,0,1.5-0.2,2-0.6c0.5-0.4,0.9-1,1.1-1.8h0.9
			c-0.2,1-0.6,1.8-1.4,2.3c-0.7,0.6-1.6,0.9-2.6,0.9C151.9,27.2,151.1,27,150.5,26.6z"/>
		<path class="st2" d="M159.2,19.8h-1.7v-0.8h1.7v-1.8h0.9v1.8h1.7v0.8h-1.7V27h-0.9V19.8z"/>
		<path class="st2" d="M164.6,26.6c-0.6-0.3-1.1-0.8-1.5-1.5c-0.4-0.6-0.5-1.3-0.5-2.1c0-0.8,0.2-1.5,0.5-2.1
			c0.4-0.6,0.8-1.1,1.5-1.5c0.6-0.3,1.4-0.5,2.2-0.5c0.8,0,1.5,0.2,2.2,0.5c0.6,0.3,1.1,0.8,1.5,1.5c0.4,0.6,0.5,1.3,0.5,2.1
			c0,0.8-0.2,1.5-0.5,2.1c-0.4,0.6-0.8,1.1-1.5,1.5c-0.6,0.3-1.4,0.5-2.2,0.5C165.9,27.2,165.2,27,164.6,26.6z M163.9,24.8
			c0.3,0.5,0.7,0.9,1.2,1.2c0.5,0.3,1.1,0.4,1.7,0.4c0.6,0,1.2-0.1,1.7-0.4c0.5-0.3,0.9-0.7,1.2-1.2c0.3-0.5,0.4-1.1,0.4-1.7
			c0-0.6-0.1-1.2-0.4-1.7c-0.3-0.5-0.7-0.9-1.2-1.2c-0.5-0.3-1.1-0.4-1.7-0.4c-0.6,0-1.2,0.1-1.7,0.4c-0.5,0.3-0.9,0.7-1.2,1.2
			c-0.3,0.5-0.4,1.1-0.4,1.7C163.4,23.7,163.6,24.3,163.9,24.8z"/>
		<path class="st2" d="M172.4,19.1h0.9v1.5c0.2-0.5,0.6-0.9,1.1-1.2c0.5-0.3,1-0.5,1.7-0.5v0.9c-0.5,0-1,0.1-1.4,0.4
			c-0.4,0.2-0.7,0.6-1,1c-0.2,0.4-0.3,0.9-0.3,1.4V27h-0.9V19.1z"/>
		<path class="st2" d="M178.7,26.6c-0.6-0.3-1.1-0.8-1.4-1.5c-0.3-0.6-0.5-1.3-0.5-2.1c0-0.8,0.2-1.5,0.5-2.1
			c0.3-0.6,0.8-1.1,1.4-1.5c0.6-0.3,1.3-0.5,2.1-0.5c0.7,0,1.4,0.2,2,0.5c0.6,0.3,1,0.8,1.4,1.3v-1.7h0.9v8h-0.9v-1.7
			c-0.3,0.6-0.8,1-1.4,1.3c-0.6,0.3-1.2,0.5-2,0.5C180,27.2,179.3,27,178.7,26.6z M178,24.8c0.3,0.5,0.7,0.9,1.1,1.2
			c0.5,0.3,1,0.4,1.7,0.4c0.6,0,1.2-0.1,1.7-0.4c0.5-0.3,0.9-0.7,1.1-1.2c0.3-0.5,0.4-1.1,0.4-1.7c0-0.6-0.1-1.2-0.4-1.7
			c-0.3-0.5-0.7-0.9-1.1-1.2c-0.5-0.3-1-0.4-1.7-0.4c-0.6,0-1.2,0.1-1.7,0.4c-0.5,0.3-0.9,0.7-1.1,1.2c-0.3,0.5-0.4,1.1-0.4,1.7
			C177.6,23.7,177.8,24.3,178,24.8z"/>
	</g>
	<g>
		<path class="st1" d="M81,138.9c-1.6-0.9-2.9-2.1-3.7-3.7c-0.9-1.6-1.3-3.4-1.3-5.5c0-2,0.4-3.8,1.3-5.4c0.9-1.6,2.1-2.8,3.7-3.7
			c1.6-0.9,3.4-1.3,5.5-1.3c2,0,3.9,0.4,5.5,1.3c1.6,0.9,2.9,2.1,3.7,3.7c0.9,1.6,1.3,3.4,1.3,5.4c0,2.1-0.4,3.9-1.3,5.5
			c-0.9,1.6-2.1,2.8-3.7,3.7c-1.6,0.9-3.4,1.3-5.5,1.3C84.4,140.3,82.6,139.8,81,138.9z M80.8,133.4c0.6,1,1.3,1.9,2.3,2.4
			c1,0.6,2.1,0.9,3.4,0.9c1.3,0,2.4-0.3,3.4-0.9c1-0.6,1.7-1.4,2.3-2.4c0.5-1,0.8-2.2,0.8-3.6c0-1.3-0.3-2.5-0.8-3.6
			c-0.5-1-1.3-1.8-2.3-2.4c-1-0.6-2.1-0.9-3.4-0.9c-1.3,0-2.4,0.3-3.4,0.9c-1,0.6-1.7,1.4-2.3,2.4c-0.6,1-0.8,2.2-0.8,3.6
			C79.9,131.1,80.2,132.3,80.8,133.4z"/>
		<path class="st1" d="M106.2,139.7c-0.9-0.4-1.7-1-2.3-1.7v2.1h-3.9v-20.3h3.9v5.8c0.6-0.7,1.4-1.3,2.3-1.7s1.9-0.6,3-0.6
			c1.5,0,2.8,0.4,4,1.1c1.2,0.7,2.1,1.7,2.8,3c0.7,1.3,1,2.8,1,4.4c0,1.7-0.3,3.2-1,4.4c-0.7,1.3-1.6,2.3-2.8,3
			c-1.2,0.7-2.6,1.1-4,1.1C108.1,140.3,107.1,140.1,106.2,139.7z M104.5,134.3c0.4,0.7,0.9,1.3,1.6,1.7c0.7,0.4,1.5,0.6,2.4,0.6
			c0.9,0,1.7-0.2,2.4-0.6c0.7-0.4,1.2-1,1.6-1.7c0.4-0.7,0.6-1.6,0.6-2.6c0-1-0.2-1.8-0.6-2.6c-0.4-0.7-0.9-1.3-1.6-1.7
			s-1.5-0.6-2.4-0.6c-0.9,0-1.7,0.2-2.4,0.6c-0.7,0.4-1.2,1-1.6,1.7c-0.4,0.7-0.6,1.6-0.6,2.6C103.9,132.7,104.1,133.6,104.5,134.3z
			"/>
		<path class="st1" d="M120.2,123.5h3.9v2.4c0.3-0.6,0.8-1.2,1.5-1.7c0.7-0.6,1.6-0.9,2.6-0.9v4c-1.2,0-2.2,0.4-3,1.1
			c-0.7,0.8-1.1,1.8-1.1,3.1v8.6h-4V123.5z"/>
		<path class="st1" d="M133.8,139.2c-1.3-0.7-2.3-1.7-3-3c-0.7-1.3-1.1-2.8-1.1-4.4c0-1.7,0.4-3.2,1.1-4.5c0.7-1.3,1.8-2.3,3.1-3
			c1.3-0.7,2.8-1.1,4.4-1.1c1.7,0,3.2,0.4,4.5,1.1c1.3,0.8,2.3,1.8,3.1,3.1c0.7,1.3,1.1,2.8,1.1,4.4c0,0.4,0,0.8-0.1,1.2h-13.1
			c0.1,1.1,0.6,2,1.5,2.7c0.9,0.7,1.8,1,3,1c0.9,0,1.7-0.2,2.5-0.7c0.8-0.4,1.3-1.1,1.7-1.8h4.2c-0.6,1.9-1.6,3.3-3.1,4.4
			s-3.3,1.6-5.3,1.6C136.6,140.3,135.1,139.9,133.8,139.2z M142.7,129.9c-0.3-1-0.9-1.8-1.6-2.4s-1.7-0.9-2.7-0.9
			c-1.1,0-2,0.3-2.7,0.9c-0.8,0.6-1.3,1.4-1.6,2.4L142.7,129.9z"/>
		<path class="st1" d="M150.1,123.5h3.9v2.4c0.3-0.6,0.8-1.2,1.5-1.7c0.7-0.6,1.6-0.9,2.6-0.9v4c-1.2,0-2.2,0.4-3,1.1
			c-0.7,0.8-1.1,1.8-1.1,3.1v8.6h-4V123.5z"/>
		<path class="st1" d="M163.8,139.2c-1.3-0.7-2.3-1.7-3.1-3c-0.7-1.3-1.1-2.8-1.1-4.5c0-1.7,0.4-3.2,1.1-4.4c0.7-1.3,1.7-2.3,3.1-3
			c1.3-0.7,2.8-1.1,4.5-1.1c1.7,0,3.2,0.4,4.5,1.1c1.3,0.7,2.3,1.7,3.1,3c0.7,1.3,1.1,2.8,1.1,4.4c0,1.7-0.4,3.2-1.1,4.5
			c-0.7,1.3-1.7,2.3-3.1,3c-1.3,0.7-2.8,1.1-4.5,1.1C166.6,140.3,165.1,139.9,163.8,139.2z M164.3,134.3c0.4,0.7,0.9,1.3,1.6,1.7
			c0.7,0.4,1.5,0.6,2.4,0.6c0.9,0,1.7-0.2,2.4-0.6c0.7-0.4,1.2-1,1.6-1.7c0.4-0.7,0.6-1.6,0.6-2.6c0-1-0.2-1.8-0.6-2.6
			c-0.4-0.8-0.9-1.3-1.6-1.8c-0.7-0.4-1.5-0.6-2.4-0.6c-0.9,0-1.7,0.2-2.4,0.6s-1.2,1-1.6,1.8c-0.4,0.8-0.6,1.6-0.6,2.6
			C163.7,132.7,163.9,133.6,164.3,134.3z"/>
		<path class="st1" d="M182.2,139.5c-1-0.5-1.8-1.3-2.4-2.2c-0.6-0.9-0.8-2-0.8-3.3h3.9c0,0.8,0.3,1.5,0.8,2
			c0.6,0.5,1.3,0.8,2.1,0.8c0.7,0,1.2-0.1,1.8-0.4c0.5-0.3,0.8-0.7,0.8-1.2c0-0.5-0.2-0.9-0.6-1.1c-0.4-0.2-1-0.5-1.9-0.7
			c-0.4-0.1-0.7-0.2-1-0.3l-0.6-0.2c-1-0.3-1.9-0.6-2.5-0.9s-1.2-0.8-1.6-1.4c-0.4-0.6-0.7-1.4-0.7-2.4c0-1,0.2-1.9,0.7-2.7
			c0.5-0.8,1.2-1.4,2-1.8c0.9-0.4,1.9-0.6,3-0.6c1.2,0,2.2,0.2,3.2,0.7c0.9,0.4,1.7,1.1,2.2,1.9c0.5,0.8,0.8,1.7,0.8,2.7h-3.9
			c0-0.5-0.2-0.9-0.6-1.3c-0.4-0.3-0.9-0.5-1.5-0.5c-0.6,0-1.1,0.1-1.4,0.4c-0.4,0.3-0.6,0.6-0.6,1.1c0,0.4,0.2,0.8,0.6,1
			c0.4,0.2,1,0.5,1.9,0.7c0.1,0,0.3,0.1,0.7,0.2c1.3,0.4,2.3,0.8,3,1s1.3,0.7,1.8,1.4c0.5,0.6,0.8,1.5,0.8,2.6c0,1.1-0.3,2-0.8,2.8
			c-0.6,0.8-1.3,1.4-2.3,1.8c-1,0.4-2.1,0.6-3.4,0.6C184.4,140.3,183.2,140,182.2,139.5z"/>
	</g>
	<g>
		<path class="st3" d="M80.2,101.3c1.2-1.2,1.8-2.8,1.8-4.8V59.8h9v36.5c0,3-0.7,5.7-2,8c-1.3,2.3-3.2,4.1-5.5,5.3
			c-2.4,1.3-5,1.9-8.1,1.9v-8.3C77.4,103.2,79,102.6,80.2,101.3z"/>
		<path class="st3" d="M137.2,110.6c-1.9-0.9-3.4-2.2-4.4-3.9c-1-1.7-1.6-3.6-1.6-5.9h8.6c0,1.1,0.4,2,1.2,2.7c0.8,0.7,1.9,1,3.2,1
			c1,0,1.8-0.2,2.6-0.6c0.8-0.4,1.1-0.9,1.1-1.7c0-0.7-0.3-1.3-1-1.6c-0.7-0.3-1.9-0.7-3.5-1.1l-1.2-0.3l-1.2-0.3
			c-1.8-0.5-3.3-0.9-4.5-1.5c-1.2-0.5-2.3-1.3-3.2-2.5c-0.9-1.1-1.3-2.7-1.3-4.6c0-1.9,0.5-3.6,1.4-5c0.9-1.4,2.2-2.6,3.9-3.3
			c1.7-0.8,3.6-1.2,5.8-1.2c2.3,0,4.3,0.4,6.1,1.3c1.8,0.9,3.1,2.1,4.1,3.6c1,1.5,1.5,3.2,1.5,5.2h-8.3c0-0.7-0.3-1.3-0.8-1.7
			c-0.6-0.4-1.3-0.7-2.1-0.7c-0.8,0-1.4,0.2-2,0.6c-0.5,0.4-0.8,0.9-0.8,1.5c0,0.6,0.3,1.1,0.9,1.4c0.6,0.3,1.8,0.7,3.5,1.1l1.1,0.3
			c2.1,0.6,3.8,1.1,5.1,1.7c1.4,0.6,2.5,1.5,3.4,2.7c0.9,1.2,1.4,2.7,1.4,4.6c0,3-1.1,5.4-3.4,7.1c-2.3,1.7-5.3,2.5-9,2.5
			C141.3,112,139.1,111.5,137.2,110.6z"/>
		<path class="st3" d="M167.3,110c-2.3-1.3-4.1-3.1-5.4-5.5c-1.3-2.3-2-5-2-8c0-3,0.7-5.7,2-8.1c1.3-2.4,3.2-4.2,5.6-5.5
			c2.4-1.3,5.1-2,8.2-2c3.1,0,5.8,0.7,8.2,2c2.4,1.4,4.2,3.2,5.5,5.6c1.3,2.4,2,5,2,8c0,0.7,0,1.5-0.1,2.3h-22.6
			c0.3,1.7,1.1,3,2.4,4.1c1.3,1,2.8,1.5,4.6,1.5c1.3,0,2.5-0.3,3.6-0.9c1.1-0.6,1.9-1.4,2.5-2.5h8.9c-1,3.4-2.9,6-5.6,8
			c-2.7,2-6,2.9-9.7,2.9C172.3,112,169.7,111.3,167.3,110z M182.3,93.3c-0.5-1.4-1.4-2.5-2.5-3.4c-1.2-0.8-2.5-1.2-4.1-1.2
			c-1.6,0-3,0.4-4.1,1.2c-1.2,0.8-2,2-2.6,3.4L182.3,93.3z M172,77l3.2-11.2l7.1,2.3l-4,11L172,77z"/>
		<path class="st3" d="M118.6,96.3c0,0.1,0,0.1,0,0.2c0,2.2-0.6,3.9-1.9,5.2c-1.3,1.3-2.9,2-4.9,2c-2,0-3.7-0.7-4.9-2
			c-1.3-1.3-1.9-3.1-1.9-5.2c0-0.1,0-0.1,0-0.2h-8.9c0,0.1,0,0.1,0,0.2c0,3,0.7,5.7,2,8.1c1.3,2.4,3.2,4.2,5.6,5.5
			c2.4,1.3,5.1,2,8.2,2c3.1,0,5.8-0.7,8.2-2c2.4-1.3,4.2-3.1,5.6-5.5c1.3-2.4,2-5,2-8.1c0-0.1,0-0.1,0-0.2H118.6z"/>
	</g>
	<path class="st3" d="M129.3,93.2H94.2c-0.8,0-1.2-1-0.6-1.6l0.9-0.8c0.8-5.6,4.2-10.9,9-13.7v6.1c0,0.5,0.4,1,1,1c0.5,0,1-0.4,1-1
		v-7.1c0.7-0.3,1.4-0.5,2.1-0.7l1-0.2h0v9.3c0,1.8,1.5,3.3,3.3,3.3c0.9,0,1.7-0.4,2.3-1c0.6-0.6,1-1.4,1-2.3l0-9.3h0l1,0.2
		c0.7,0.2,1.4,0.4,2.1,0.7v7.1c0,0.5,0.4,1,1,1s1-0.4,1-1v-6.1c4.8,2.8,8.2,8.1,9,13.7l0.9,0.8C130.5,92.2,130.2,93.2,129.3,93.2z"
		/>
	<path class="st0" d="M56.2,31.3c-1.2,0-2.2,1-2.2,2.2s1,2.2,2.2,2.2h10.2v109c0,1.2,1,2.2,2.2,2.2s2.2-1,2.2-2.2v-109H81
		c1.2,0,2.2-1,2.2-2.2s-1-2.2-2.2-2.2H70.8v-7.2c4.6-1,8-5.1,8-10C78.8,8.5,74.2,4,68.6,4C63,4,58.4,8.5,58.4,14.2c0,4.9,3.4,9,8,10
		v7.2H56.2z M62.8,14.2c0-3.2,2.6-5.8,5.8-5.8c3.2,0,5.8,2.6,5.8,5.8c0,3.2-2.6,5.8-5.8,5.8C65.4,20,62.8,17.4,62.8,14.2z"/>
	<path class="st4" d="M189.1,31.3h-19.7h-56H93.6c-1.2,0-2.2,1-2.2,2.2c0,1.2,1,2.2,2.2,2.2h19.7h56h19.7c1.2,0,2.2-1,2.2-2.2
		C191.3,32.3,190.4,31.3,189.1,31.3z"/>
</g>
</svg>
